# Blender v2.78 (sub 0) OBJ File: 'becher.blend'
# www.blender.org
mtllib becher.mtl
o Cylinder.006_Cylinder.007
v -0.235064 0.063271 1.243375
v 0.095141 0.063271 1.380151
v 0.231917 0.063271 1.710356
v 0.095141 0.063271 2.040561
v -0.235064 0.063271 2.177337
v -0.565269 0.063271 2.040561
v -0.702045 0.063271 1.710356
v -0.565269 0.063271 1.380151
v -0.235064 -0.221133 1.205709
v -0.235064 1.035538 0.960139
v 0.121775 -0.221133 1.353517
v 0.295419 1.035538 1.179873
v 0.269582 -0.221133 1.710356
v 0.515153 1.035538 1.710356
v 0.121775 -0.221133 2.067195
v 0.295419 1.035538 2.240839
v -0.235064 -0.221133 2.215002
v -0.235064 1.035538 2.460572
v -0.591903 -0.221133 2.067195
v -0.765547 1.035538 2.240839
v -0.739710 -0.221133 1.710356
v -0.985281 1.035538 1.710356
v -0.591903 -0.221133 1.353517
v -0.765547 1.035538 1.179873
v -0.235064 1.035538 2.367331
v 0.421911 1.035538 1.710356
v 0.229487 1.035538 2.174907
v -0.699615 1.035539 2.174907
v -0.892039 1.035538 1.710356
v 0.229487 1.035538 1.245805
v -0.699615 1.035538 1.245805
v -0.235064 1.035538 1.053381
vt 0.9800 0.2838
vt 0.8815 0.2838
vt 0.8615 0.0000
vt 1.0000 0.0000
vt 0.8119 0.2838
vt 0.7636 0.0000
vt 0.9514 0.4126
vt 0.9514 0.4785
vt 0.6518 0.4595
vt 0.6518 0.3668
vt 0.9514 0.5717
vt 0.6518 0.5907
vt 0.9514 0.6376
vt 0.6518 0.6834
vt 0.6518 0.9542
vt 0.6518 0.8883
vt 0.9514 0.9073
vt 0.9514 1.0000
vt 0.6518 0.7951
vt 0.9514 0.7761
vt 0.6518 0.7292
vt 0.9514 0.6834
vt 0.6194 0.7995
vt 0.6194 0.8927
vt 0.5498 0.9586
vt 0.4514 0.9586
vt 0.3818 0.8927
vt 0.3818 0.7995
vt 0.4514 0.7336
vt 0.5498 0.7336
vt 0.2441 0.3668
vt 0.2700 0.0000
vt 0.3818 0.0000
vt 0.3193 0.3668
vt 0.7011 0.0000
vt 0.7636 0.3668
vt 0.6518 0.3668
vt 0.6259 0.0000
vt 0.4936 0.3668
vt 0.5195 0.0000
vt 0.3818 0.3668
vt 0.4443 0.0000
vt 0.4077 0.7336
vt 0.5399 0.3668
vt 0.5141 0.7336
vt 0.6518 0.3668
vt 0.5893 0.7336
vt 0.1118 0.3668
vt 0.2700 0.3668
vt 0.3818 0.4727
vt 0.3818 0.6224
vt 0.3581 0.6131
vt 0.3581 0.4820
vt 0.2601 0.3892
vt 0.1217 0.3892
vt 0.0237 0.4820
vt 0.0000 0.4727
vt 0.0625 0.3668
vt 0.0000 0.0000
vt 0.1118 0.0000
vt 0.1377 0.3668
vt 0.0752 0.9715
vt 0.0000 0.9003
vt 0.0000 0.7996
vt 0.0752 0.7283
vt 0.1816 0.7283
vt 0.2568 0.7996
vt 0.2568 0.9003
vt 0.1816 0.9715
vt 0.0237 0.6131
vt 0.1217 0.7059
vt 0.2601 0.7059
vt 0.2700 0.7283
vt 0.1118 0.7283
vt 0.0000 0.6224
vn -0.3766 0.1777 0.9092
vn -0.9092 0.1777 0.3766
vn -0.9092 0.1777 -0.3766
vn -0.3766 0.1777 -0.9092
vn 0.3766 0.1777 -0.9092
vn 0.9092 0.1777 -0.3766
vn 0.9092 0.1777 0.3766
vn 0.3766 0.1777 0.9092
vn 0.0000 1.0000 -0.0000
vn 0.3766 -0.1777 -0.9092
vn 0.9092 -0.1777 -0.3766
vn 0.9092 -0.1777 0.3766
vn 0.3766 -0.1777 0.9092
vn -0.3766 -0.1777 0.9092
vn -0.9092 -0.1777 0.3766
vn -0.9092 -0.1777 -0.3766
vn -0.3766 -0.1777 -0.9092
vn 0.0000 -1.0000 -0.0000
usemtl None
s off
f 1/1/1 2/2/1 30/3/1 32/4/1
f 2/2/2 3/5/2 26/6/2 30/3/2
f 3/7/3 4/8/3 27/9/3 26/10/3
f 4/8/4 5/11/4 25/12/4 27/9/4
f 5/11/5 6/13/5 28/14/5 25/12/5
f 6/15/6 7/16/6 29/17/6 28/18/6
f 7/16/7 8/19/7 31/20/7 29/17/7
f 8/19/8 1/21/8 32/22/8 31/20/8
f 1/23/9 8/24/9 7/25/9 6/26/9 5/27/9 4/28/9 3/29/9 2/30/9
f 9/31/10 10/32/10 12/33/10 11/34/10
f 11/35/11 12/36/11 14/37/11 13/38/11
f 13/38/12 14/37/12 16/39/12 15/40/12
f 15/40/13 16/39/13 18/41/13 17/42/13
f 17/43/14 18/41/14 20/44/14 19/45/14
f 19/45/15 20/44/15 22/46/15 21/47/15
f 12/48/9 10/49/9 24/50/9 22/51/9 29/52/9 31/53/9 32/54/9 30/55/9 26/56/9 14/57/9
f 21/58/16 22/59/16 24/60/16 23/61/16
f 23/61/17 24/60/17 10/32/17 9/31/17
f 9/62/18 11/63/18 13/64/18 15/65/18 17/66/18 19/67/18 21/68/18 23/69/18
f 14/57/9 26/56/9 27/70/9 25/71/9 28/72/9 29/52/9 22/51/9 20/73/9 18/74/9 16/75/9
