# Blender v2.78 (sub 0) OBJ File: 'dose1.blend'
# www.blender.org
mtllib dose1.mtl
o Cylinder.001
v 0.000000 -1.000000 -3.724903
v 0.000000 1.000000 -3.724903
v 0.500000 -1.000000 -3.590928
v 0.500000 1.000000 -3.590928
v 0.866025 -1.000000 -3.224903
v 0.866025 1.000000 -3.224903
v 1.000000 -1.000000 -2.724903
v 1.000000 1.000000 -2.724903
v 0.866025 -1.000000 -2.224903
v 0.866025 1.000000 -2.224903
v 0.500000 -1.000000 -1.858877
v 0.500000 1.000000 -1.858877
v 0.000000 -1.000000 -1.724903
v 0.000000 1.000000 -1.724903
v -0.500000 -1.000000 -1.858877
v -0.500000 1.000000 -1.858877
v -0.866025 -1.000000 -2.224903
v -0.866025 1.000000 -2.224903
v -1.000000 -1.000000 -2.724902
v -1.000000 1.000000 -2.724902
v -0.866026 -1.000000 -3.224902
v -0.866026 1.000000 -3.224902
v -0.500001 -1.000000 -3.590928
v -0.500001 1.000000 -3.590928
v 0.000000 -1.225141 -3.551548
v 0.413323 -1.225141 -3.440799
v 0.021083 1.225141 -3.104271
v -0.130812 1.225141 -3.144971
v 0.715896 -1.225141 -3.138226
v 0.132277 1.225141 -2.993076
v 0.826645 -1.225141 -2.724903
v 0.172977 1.225141 -2.841182
v 0.715896 -1.225141 -2.311580
v 0.132277 1.225141 -2.689287
v 0.413323 -1.225141 -2.009007
v 0.021083 1.225141 -2.578093
v 0.000000 -1.225141 -1.898257
v -0.130812 1.225141 -2.537393
v -0.413323 -1.225141 -2.009007
v -0.282706 1.225141 -2.578093
v -0.715896 -1.225141 -2.311580
v -0.393901 1.225141 -2.689287
v -0.826646 -1.225141 -2.724902
v -0.506560 1.225141 -2.905264
v -0.715896 -1.225141 -3.138225
v -0.465860 1.225141 -3.057158
v -0.413323 -1.225141 -3.440799
v -0.354666 1.225141 -3.168353
v -0.000000 -1.225141 -3.592951
v 0.434024 -1.225141 -3.476654
v 0.434024 1.225141 -3.476654
v -0.000000 1.225141 -3.592951
v 0.751751 -1.225141 -3.158927
v 0.751751 1.225141 -3.158927
v 0.868048 -1.225141 -2.724903
v 0.868048 1.225141 -2.724903
v 0.751751 -1.225141 -2.290879
v 0.751751 1.225141 -2.290879
v 0.434024 -1.225141 -1.973152
v 0.434024 1.225141 -1.973152
v 0.000000 -1.225141 -1.856855
v 0.000000 1.225141 -1.856855
v -0.434024 -1.225141 -1.973151
v -0.434024 1.225141 -1.973151
v -0.751751 -1.225141 -2.290879
v -0.751751 1.225141 -2.290879
v -0.868048 -1.225141 -2.724902
v -0.868048 1.225141 -2.724902
v -0.751752 -1.225141 -3.158926
v -0.751752 1.225141 -3.158926
v -0.434024 -1.225141 -3.476654
v -0.434024 1.225141 -3.476654
v -0.000000 -1.275080 -3.592951
v 0.434024 -1.275080 -3.476654
v 0.434024 1.275080 -3.476654
v -0.000000 1.275080 -3.592951
v 0.751751 -1.275080 -3.158927
v 0.751751 1.275080 -3.158927
v 0.868048 -1.275080 -2.724903
v 0.868048 1.275080 -2.724903
v 0.751751 -1.275080 -2.290879
v 0.751751 1.275080 -2.290879
v 0.434024 -1.275080 -1.973152
v 0.434024 1.275080 -1.973152
v 0.000000 -1.275080 -1.856855
v 0.000000 1.275080 -1.856855
v -0.434024 -1.275080 -1.973151
v -0.434024 1.275080 -1.973151
v -0.751751 -1.275080 -2.290879
v -0.751751 1.275080 -2.290879
v -0.868048 -1.275080 -2.724902
v -0.868048 1.275080 -2.724902
v -0.751752 -1.275080 -3.158926
v -0.751752 1.275080 -3.158926
v -0.434024 -1.275080 -3.476654
v -0.434024 1.275080 -3.476654
v 0.000000 -1.275080 -3.551548
v 0.413323 -1.275080 -3.440799
v 0.413323 1.275080 -3.440799
v 0.000000 1.275080 -3.551548
v 0.715896 -1.275080 -3.138226
v 0.715896 1.275080 -3.138226
v 0.826645 -1.275080 -2.724903
v 0.826645 1.275080 -2.724903
v 0.715896 -1.275080 -2.311580
v 0.715896 1.275080 -2.311580
v 0.413323 -1.275080 -2.009007
v 0.413323 1.275080 -2.009007
v 0.000000 -1.275080 -1.898257
v 0.000000 1.275080 -1.898257
v -0.413323 -1.275080 -2.009007
v -0.413323 1.275080 -2.009007
v -0.715896 -1.275080 -2.311580
v -0.715896 1.275080 -2.311580
v -0.826646 -1.275080 -2.724902
v -0.826646 1.275080 -2.724902
v -0.715896 -1.275080 -3.138225
v -0.715896 1.275080 -3.138225
v -0.413323 -1.275080 -3.440799
v -0.413323 1.275080 -3.440799
v 0.413323 1.225141 -3.440799
v 0.000000 1.225141 -3.551548
v 0.715896 1.225141 -3.138226
v 0.826645 1.225141 -2.724903
v 0.715896 1.225141 -2.311580
v 0.413323 1.225141 -2.009007
v 0.000000 1.225141 -1.898257
v -0.413323 1.225141 -2.009007
v -0.715896 1.225141 -2.311580
v -0.826646 1.225141 -2.724902
v -0.715896 1.225141 -3.138225
v -0.413323 1.225141 -3.440799
v 0.021083 1.182192 -3.104271
v -0.130812 1.182192 -3.144971
v 0.132277 1.182192 -2.993076
v 0.172977 1.182192 -2.841182
v 0.132277 1.182192 -2.689287
v 0.021083 1.182192 -2.578093
v -0.130812 1.182192 -2.537393
v -0.282706 1.182192 -2.578093
v -0.393901 1.182192 -2.689287
v -0.506560 1.182192 -2.905264
v -0.465860 1.182192 -3.057158
v -0.354666 1.182192 -3.168353
vt 0.4903 0.2625
vt 0.4903 0.7599
vt 0.4540 0.7599
vt 0.4540 0.2625
vt 0.4123 0.7599
vt 0.4123 0.2625
vt 0.3764 0.7599
vt 0.3764 0.2625
vt 0.4080 0.6346
vt 0.4080 0.7688
vt 0.3892 0.7688
vt 0.3892 0.6346
vt 0.4894 0.5285
vt 0.4894 0.3387
vt 0.5156 0.3387
vt 0.5156 0.5285
vt 0.5301 0.2474
vt 0.5299 0.7611
vt 0.4909 0.7610
vt 0.4911 0.2473
vt 0.4453 0.7610
vt 0.4455 0.2473
vt 0.4054 0.7609
vt 0.4056 0.2472
vt 0.4049 0.2449
vt 0.4084 0.7627
vt 0.3783 0.7634
vt 0.3748 0.2455
vt 0.5404 0.3547
vt 0.5404 0.4890
vt 0.5073 0.4890
vt 0.5073 0.3547
vt 0.4573 0.2893
vt 0.4032 0.2893
vt 0.4070 0.2680
vt 0.4540 0.2680
vt 0.4690 0.4890
vt 0.4690 0.3547
vt 0.5264 0.2625
vt 0.5264 0.7599
vt 0.5283 0.5557
vt 0.5327 0.6515
vt 0.5204 0.6472
vt 0.5166 0.5640
vt 0.2644 0.5644
vt 0.2644 0.5514
vt 0.2689 0.5514
vt 0.2689 0.5644
vt 0.1081 0.6692
vt 0.1081 0.6286
vt 0.1305 0.5935
vt 0.1692 0.5732
vt 0.2139 0.5732
vt 0.2527 0.5935
vt 0.2750 0.6286
vt 0.2750 0.6692
vt 0.2527 0.7044
vt 0.2139 0.7247
vt 0.1692 0.7247
vt 0.1305 0.7044
vt 0.4147 0.2920
vt 0.4464 0.2920
vt 0.4488 0.3065
vt 0.4213 0.3065
vt 0.5122 0.5370
vt 0.5262 0.4895
vt 0.5381 0.4958
vt 0.5260 0.5370
vt 0.3784 0.5538
vt 0.3723 0.4909
vt 0.3809 0.4833
vt 0.3862 0.5380
vt 0.5262 0.4895
vt 0.5122 0.4421
vt 0.5260 0.4421
vt 0.5381 0.4833
vt 0.4830 0.2920
vt 0.5147 0.2920
vt 0.5081 0.3065
vt 0.4806 0.3065
vt 0.4029 0.6891
vt 0.3726 0.6537
vt 0.3841 0.6473
vt 0.4105 0.6781
vt 0.4705 0.2580
vt 0.5179 0.2580
vt 0.5083 0.2794
vt 0.4672 0.2794
vt 0.4688 0.7663
vt 0.4381 0.7304
vt 0.4410 0.7138
vt 0.4677 0.7450
vt 0.5245 0.4732
vt 0.5133 0.4924
vt 0.5046 0.2893
vt 0.4951 0.2680
vt 0.5365 0.7351
vt 0.5238 0.7197
vt 0.3701 0.2580
vt 0.4164 0.2580
vt 0.4202 0.2794
vt 0.3800 0.2794
vt 0.3652 0.4182
vt 0.3748 0.4202
vt 0.3568 0.2893
vt 0.3668 0.2680
vt 0.5262 0.5844
vt 0.5381 0.5781
vt 0.4226 0.6995
vt 0.4226 0.7487
vt 0.4093 0.7454
vt 0.4093 0.7028
vt 0.5262 0.3946
vt 0.5381 0.4009
vt 0.3960 0.7487
vt 0.3960 0.6995
vt 0.4093 0.7028
vt 0.4093 0.7454
vt 0.3591 0.3552
vt 0.3695 0.3655
vt 0.2402 0.5694
vt 0.2402 0.5496
vt 0.2451 0.5496
vt 0.2451 0.5694
vt 0.2550 0.6734
vt 0.2550 0.6545
vt 0.2599 0.6545
vt 0.2599 0.6734
vt 0.1980 0.7427
vt 0.2449 0.7427
vt 0.2449 0.7474
vt 0.1980 0.7474
vt 0.2451 0.6929
vt 0.2451 0.6731
vt 0.2501 0.6731
vt 0.2501 0.6929
vt 0.2501 0.6015
vt 0.2501 0.5684
vt 0.2550 0.5684
vt 0.2550 0.6015
vt 0.1534 0.3485
vt 0.1426 0.3254
vt 0.1435 0.3241
vt 0.1543 0.3472
vt 0.2402 0.6030
vt 0.2451 0.6030
vt 0.2550 0.6215
vt 0.2599 0.6215
vt 0.1578 0.7427
vt 0.1578 0.7474
vt 0.2451 0.6395
vt 0.2501 0.6395
vt 0.1494 0.3113
vt 0.1712 0.3589
vt 0.1695 0.3614
vt 0.1477 0.3138
vt 0.2501 0.6399
vt 0.2550 0.6399
vt 0.1365 0.3123
vt 0.1374 0.3110
vt 0.2402 0.6414
vt 0.2451 0.6414
vt 0.1515 0.5996
vt 0.1108 0.5996
vt 0.1108 0.5948
vt 0.1515 0.5948
vt 0.2857 0.6520
vt 0.2857 0.6114
vt 0.2909 0.6114
vt 0.2909 0.6520
vt 0.1350 0.7427
vt 0.1350 0.7474
vt 0.2451 0.6011
vt 0.2501 0.6011
vt 0.1963 0.4138
vt 0.1946 0.4163
vt 0.2501 0.6734
vt 0.2550 0.6734
vt 0.1345 0.3536
vt 0.1444 0.3737
vt 0.1431 0.3757
vt 0.1331 0.3557
vt 0.1826 0.5619
vt 0.1356 0.5619
vt 0.1356 0.5572
vt 0.1826 0.5572
vt 0.2550 0.5831
vt 0.2550 0.5496
vt 0.2599 0.5496
vt 0.2599 0.5831
vt 0.1402 0.3456
vt 0.1300 0.3230
vt 0.1314 0.3208
vt 0.1417 0.3435
vt 0.1336 0.6445
vt 0.1113 0.6797
vt 0.1071 0.6786
vt 0.1306 0.6417
vt 0.2762 0.6350
vt 0.2539 0.5998
vt 0.2569 0.5970
vt 0.2804 0.6340
vt 0.1724 0.6242
vt 0.1713 0.6204
vt 0.2151 0.5795
vt 0.2163 0.5757
vt 0.2171 0.6242
vt 0.2182 0.6204
vt 0.1704 0.5795
vt 0.1693 0.5757
vt 0.2558 0.6445
vt 0.2589 0.6417
vt 0.1317 0.5998
vt 0.1286 0.5970
vt 0.2782 0.6797
vt 0.2824 0.6786
vt 0.1093 0.6350
vt 0.1051 0.6340
vt 0.2782 0.7203
vt 0.2824 0.7213
vt 0.1093 0.6756
vt 0.1051 0.6766
vt 0.2558 0.7554
vt 0.2589 0.7582
vt 0.1317 0.7107
vt 0.1286 0.7135
vt 0.2171 0.7757
vt 0.2182 0.7795
vt 0.1704 0.7310
vt 0.1693 0.7348
vt 0.1724 0.7757
vt 0.1713 0.7795
vt 0.2151 0.7310
vt 0.2163 0.7348
vt 0.1336 0.7554
vt 0.1306 0.7582
vt 0.2539 0.7107
vt 0.2569 0.7135
vt 0.1113 0.7203
vt 0.1071 0.7213
vt 0.2762 0.6756
vt 0.2804 0.6766
vt 0.1661 0.3755
vt 0.1669 0.3742
vt 0.1998 0.5066
vt 0.1998 0.4866
vt 0.2050 0.4866
vt 0.2050 0.5066
vt 0.2250 0.5525
vt 0.1841 0.5525
vt 0.1841 0.5478
vt 0.2250 0.5478
vt 0.2550 0.7066
vt 0.2550 0.6734
vt 0.2599 0.6734
vt 0.2599 0.7066
vt 0.2861 0.7427
vt 0.2861 0.7474
vt 0.2451 0.5682
vt 0.2451 0.5496
vt 0.2501 0.5496
vt 0.2501 0.5682
vt 0.1822 0.4497
vt 0.1999 0.4853
vt 0.1986 0.4874
vt 0.1809 0.4517
vt 0.2501 0.7783
vt 0.2501 0.7450
vt 0.2550 0.7450
vt 0.2550 0.7783
vt 0.1771 0.3991
vt 0.1780 0.3978
vt 0.2402 0.6929
vt 0.2402 0.6743
vt 0.2451 0.6743
vt 0.2451 0.6929
vt 0.1792 0.4314
vt 0.1583 0.3853
vt 0.1598 0.3832
vt 0.1807 0.4293
vt 0.2550 0.7450
vt 0.2599 0.7450
vt 0.2662 0.5922
vt 0.2905 0.5922
vt 0.2905 0.5969
vt 0.2662 0.5969
vt 0.1619 0.4088
vt 0.1606 0.4109
vt 0.2501 0.7066
vt 0.2550 0.7066
vt 0.1836 0.4130
vt 0.1845 0.4117
vt 0.2550 0.7783
vt 0.2599 0.7783
vt 0.2391 0.5996
vt 0.1985 0.5996
vt 0.1985 0.5948
vt 0.2391 0.5948
vt 0.2181 0.4613
vt 0.2164 0.4638
vt 0.1999 0.4537
vt 0.1990 0.4425
vt 0.2187 0.4387
vt 0.2211 0.4693
vt 0.1943 0.4296
vt 0.2060 0.4037
vt 0.1871 0.4185
vt 0.1863 0.3736
vt 0.1792 0.4122
vt 0.1649 0.3564
vt 0.1729 0.4124
vt 0.1476 0.3568
vt 0.1697 0.4189
vt 0.1389 0.3747
vt 0.1706 0.4302
vt 0.1413 0.4053
vt 0.1752 0.4431
vt 0.1540 0.4403
vt 0.1851 0.4620
vt 0.1737 0.4704
vt 0.1930 0.4683
vt 0.1951 0.4876
vt 0.1994 0.4682
vt 0.2124 0.4872
vt 0.1659 0.4498
vt 0.1659 0.4349
vt 0.1695 0.4138
vt 0.1838 0.4063
vt 0.2002 0.4063
vt 0.2190 0.4220
vt 0.2272 0.4349
vt 0.2272 0.4498
vt 0.2190 0.4627
vt 0.2047 0.4702
vt 0.1883 0.4702
vt 0.1741 0.4627
vt 0.1160 0.5722
vt 0.1160 0.5851
vt 0.1115 0.5851
vt 0.1115 0.5722
vt 0.2599 0.5586
vt 0.2599 0.5514
vt 0.2644 0.5514
vt 0.2644 0.5586
vt 0.1025 0.5875
vt 0.1025 0.5726
vt 0.1070 0.5726
vt 0.1070 0.5875
vt 0.1070 0.5723
vt 0.1070 0.5573
vt 0.1115 0.5573
vt 0.1115 0.5723
vt 0.2232 0.4853
vt 0.2232 0.5003
vt 0.2187 0.5003
vt 0.2187 0.4853
vt 0.1025 0.5515
vt 0.1070 0.5515
vt 0.1025 0.6005
vt 0.1070 0.6005
vt 0.1070 0.5942
vt 0.1115 0.5942
vt 0.2734 0.5514
vt 0.2734 0.5643
vt 0.2689 0.5643
vt 0.1025 0.6082
vt 0.1070 0.6082
vt 0.1070 0.6015
vt 0.1115 0.6015
vn 0.0000 -0.2517 -0.9678
vn 0.0000 0.2517 -0.9678
vn 0.4839 0.2517 -0.8381
vn 0.4839 -0.2517 -0.8381
vn 0.8381 0.2517 -0.4839
vn 0.8381 -0.2517 -0.4839
vn 0.9678 0.2517 0.0000
vn 0.9678 -0.2517 0.0000
vn 0.8381 0.2517 0.4839
vn 0.8381 -0.2517 0.4839
vn 0.4839 0.2517 0.8381
vn 0.4839 -0.2517 0.8381
vn 0.0000 0.2517 0.9678
vn 0.0000 -0.2517 0.9678
vn -0.4839 0.2517 0.8381
vn -0.4839 -0.2517 0.8381
vn -0.8381 0.2517 0.4839
vn -0.8381 -0.2517 0.4839
vn -0.9678 0.2517 0.0000
vn -0.9678 -0.2517 0.0000
vn -0.8381 0.2517 -0.4839
vn -0.8381 -0.2517 -0.4839
vn 0.0000 0.2736 0.9618
vn -0.4809 0.2736 0.8330
vn -0.4839 0.2517 -0.8381
vn -0.4839 -0.2517 -0.8381
vn 0.4809 0.2736 -0.8330
vn 0.8330 0.2736 -0.4809
vn 0.3189 0.7703 -0.5523
vn 0.0000 0.7703 -0.6377
vn 0.0000 0.6532 -0.7571
vn 0.3786 0.6532 -0.6557
vn 0.0000 -0.6532 0.7571
vn -0.3786 -0.6532 0.6557
vn -0.6557 -0.6532 0.3786
vn -0.7571 -0.6532 0.0000
vn -0.6557 -0.6532 -0.3786
vn -0.3786 -0.6532 -0.6557
vn 0.0000 -0.6532 -0.7571
vn 0.3786 -0.6532 -0.6557
vn 0.6557 -0.6532 -0.3786
vn 0.7571 -0.6532 0.0000
vn 0.6557 -0.6532 0.3786
vn 0.3786 -0.6532 0.6557
vn -0.4809 0.2736 -0.8330
vn 0.0000 0.2736 -0.9618
vn 0.4809 -0.2736 0.8330
vn 0.8330 -0.2736 0.4809
vn -0.8330 -0.2736 -0.4809
vn -0.9618 -0.2736 0.0000
vn 0.8330 0.2736 0.4809
vn 0.4809 0.2736 0.8330
vn -0.9618 0.2736 0.0000
vn -0.8330 0.2736 -0.4809
vn 0.9618 -0.2736 0.0000
vn 0.8330 -0.2736 -0.4809
vn -0.8330 -0.2736 0.4809
vn -0.4809 -0.2736 0.8330
vn 0.4809 -0.2736 -0.8330
vn 0.0000 -0.2736 -0.9618
vn 0.9618 0.2736 0.0000
vn -0.8330 0.2736 0.4809
vn 0.0000 -0.2736 0.9618
vn -0.4809 -0.2736 -0.8330
vn -0.6557 0.6532 0.3786
vn -0.7571 0.6532 0.0000
vn -0.6377 0.7703 0.0000
vn -0.5523 0.7703 0.3189
vn 0.6377 -0.7703 0.0000
vn 0.5523 -0.7703 0.3189
vn -0.5523 -0.7703 0.3189
vn -0.6377 -0.7703 0.0000
vn 0.6557 0.6532 -0.3786
vn 0.7571 0.6532 0.0000
vn 0.6377 0.7703 0.0000
vn 0.5523 0.7703 -0.3189
vn 0.3786 0.6532 0.6557
vn 0.0000 0.6532 0.7571
vn -0.3786 0.6532 0.6557
vn -0.3189 0.7703 0.5523
vn 0.5523 -0.7703 -0.3189
vn -0.3189 -0.7703 0.5523
vn -0.3786 0.6532 -0.6557
vn 0.6557 0.6532 0.3786
vn 0.0000 0.7703 0.6377
vn 0.3189 -0.7703 -0.5523
vn 0.0000 -0.7703 0.6377
vn -0.6557 0.6532 -0.3786
vn 0.0000 -0.7703 -0.6377
vn -0.5523 -0.7703 -0.3189
vn -0.5523 0.7703 -0.3189
vn -0.3189 -0.7703 -0.5523
vn -0.3189 0.7703 -0.5523
vn 0.5523 0.7703 0.3189
vn 0.3189 -0.7703 0.5523
vn 0.3189 0.7703 0.5523
vn -0.1252 0.7253 0.6770
vn 0.5397 0.7429 -0.3960
vn 0.5983 0.7986 -0.0658
vn 0.1922 0.8179 0.5423
vn -0.1317 0.6898 0.7119
vn 0.2616 0.6219 0.7381
vn 0.7688 0.6338 -0.0845
vn 0.5952 0.6745 -0.4368
usemtl Material
s 1
f 1/1/1 2/2/2 4/3/3 3/4/4
f 3/4/4 4/3/3 6/5/5 5/6/6
f 5/6/6 6/5/5 8/7/7 7/8/8
f 7/9/8 8/10/7 10/11/9 9/12/10
f 9/13/10 10/14/9 12/15/11 11/16/12
f 11/17/12 12/18/11 14/19/13 13/20/14
f 13/20/14 14/19/13 16/21/15 15/22/16
f 15/22/16 16/21/15 18/23/17 17/24/18
f 17/25/18 18/26/17 20/27/19 19/28/20
f 19/29/20 20/30/19 22/31/21 21/32/22
f 16/33/15 14/34/13 62/35/23 64/36/24
f 21/32/22 22/31/21 24/37/25 23/38/26
f 23/39/26 24/40/25 2/2/2 1/1/1
f 6/41/5 4/42/3 51/43/27 54/44/28
f 40/45/29 38/46/30 139/47/31 140/48/32
f 25/49/33 26/50/34 29/51/35 31/52/36 33/53/37 35/54/38 37/55/39 39/56/40 41/57/41 43/58/42 45/59/43 47/60/44
f 2/61/2 24/62/25 72/63/45 52/64/46
f 9/65/10 11/66/12 59/67/47 57/68/48
f 19/69/20 21/70/22 69/71/49 67/72/50
f 12/73/11 10/74/9 58/75/51 60/76/52
f 22/77/21 20/78/19 68/79/53 70/80/54
f 5/81/6 7/82/8 55/83/55 53/84/56
f 15/85/16 17/86/18 65/87/57 63/88/58
f 1/89/1 3/90/4 50/91/59 49/92/60
f 8/93/7 6/41/5 54/44/28 56/94/61
f 18/95/17 16/33/15 64/36/24 66/96/62
f 4/42/3 2/97/2 52/98/46 51/43/27
f 11/99/12 13/100/14 61/101/63 59/102/47
f 21/70/22 23/103/26 71/104/64 69/71/49
f 14/34/13 12/105/11 60/106/52 62/35/23
f 24/62/25 22/77/21 70/80/54 72/63/45
f 7/107/8 9/65/10 57/68/48 55/108/55
f 17/109/18 19/110/20 67/111/50 65/112/57
f 10/74/9 8/113/7 56/114/61 58/75/51
f 20/115/19 18/116/17 66/117/62 68/118/53
f 3/90/4 5/81/6 53/84/56 50/91/59
f 13/100/14 15/85/16 63/88/58 61/101/63
f 23/103/26 1/119/1 49/120/60 71/104/64
f 123/121/65 124/122/66 104/123/67 102/124/68
f 45/125/43 43/126/42 115/127/69 117/128/70
f 61/129/63 63/130/58 87/131/34 85/132/33
f 31/133/36 29/134/35 101/135/71 103/136/72
f 129/137/73 130/138/74 116/139/75 114/140/76
f 62/141/23 60/142/52 84/143/77 86/144/78
f 121/145/79 123/121/65 102/124/68 99/146/80
f 43/126/42 41/147/41 113/148/81 115/127/69
f 59/149/47 61/129/63 85/132/33 83/150/44
f 29/134/35 26/151/34 98/152/82 101/135/71
f 52/153/46 72/154/45 96/155/83 76/156/31
f 128/157/32 129/137/73 114/140/76 112/158/29
f 60/142/52 58/159/51 82/160/84 84/143/77
f 122/161/78 121/145/79 99/146/80 100/162/85
f 71/163/64 49/164/60 73/165/39 95/166/38
f 41/167/41 39/168/40 111/169/86 113/170/81
f 57/171/48 59/149/47 83/150/44 81/172/43
f 26/151/34 25/173/33 97/174/87 98/152/82
f 72/154/45 70/175/54 94/176/88 96/155/83
f 127/177/31 128/157/32 112/158/29 110/178/30
f 58/179/51 56/180/61 80/181/74 82/182/84
f 69/183/49 71/184/64 95/185/38 93/186/37
f 39/187/40 37/188/39 109/189/89 111/190/86
f 55/191/55 57/192/48 81/193/43 79/194/42
f 98/195/82 97/196/87 73/197/39 74/198/40
f 100/199/85 99/200/80 75/201/32 76/202/31
f 101/203/71 98/195/82 74/198/40 77/204/41
f 99/200/80 102/205/68 78/206/73 75/201/32
f 103/207/72 101/203/71 77/204/41 79/208/42
f 102/205/68 104/209/67 80/210/74 78/206/73
f 105/211/90 103/207/72 79/208/42 81/212/43
f 104/209/67 106/213/91 82/214/84 80/210/74
f 107/215/92 105/211/90 81/212/43 83/216/44
f 106/213/91 108/217/93 84/218/77 82/214/84
f 109/219/89 107/215/92 83/216/44 85/220/33
f 108/217/93 110/221/30 86/222/78 84/218/77
f 111/223/86 109/219/89 85/220/33 87/224/34
f 110/221/30 112/225/29 88/226/79 86/222/78
f 113/227/81 111/223/86 87/224/34 89/228/35
f 112/225/29 114/229/76 90/230/65 88/226/79
f 115/231/69 113/227/81 89/228/35 91/232/36
f 114/229/76 116/233/75 92/234/66 90/230/65
f 117/235/70 115/231/69 91/232/36 93/236/37
f 116/233/75 118/237/94 94/238/88 92/234/66
f 119/239/95 117/235/70 93/236/37 95/240/38
f 118/237/94 120/241/96 96/242/83 94/238/88
f 97/196/87 119/239/95 95/240/38 73/197/39
f 120/241/96 100/199/85 76/202/31 96/242/83
f 64/243/24 62/141/23 86/144/78 88/244/79
f 130/245/74 131/246/84 118/247/94 116/248/75
f 49/249/60 50/250/59 74/251/40 73/252/39
f 33/253/37 31/254/36 103/255/72 105/256/90
f 63/130/58 65/257/57 89/258/35 87/131/34
f 47/259/44 45/260/43 117/261/70 119/262/95
f 51/263/27 52/264/46 76/265/31 75/266/32
f 124/267/66 125/268/88 106/269/91 104/270/67
f 66/271/62 64/243/24 88/244/79 90/272/65
f 131/273/84 132/274/77 120/275/96 118/276/94
f 50/277/59 53/278/56 77/279/41 74/280/40
f 35/281/38 33/253/37 105/256/90 107/282/92
f 65/283/57 67/284/50 91/285/36 89/286/35
f 25/173/33 47/259/44 119/262/95 97/174/87
f 54/287/28 51/263/27 75/266/32 78/288/73
f 125/268/88 126/289/83 108/290/93 106/269/91
f 68/291/53 66/271/62 90/272/65 92/292/66
f 132/274/77 122/161/78 100/162/85 120/275/96
f 53/278/56 55/191/55 79/194/42 77/279/41
f 37/293/39 35/281/38 107/282/92 109/294/89
f 67/295/50 69/296/49 93/297/37 91/298/36
f 56/180/61 54/287/28 78/288/73 80/181/74
f 126/289/83 127/177/31 110/178/30 108/290/93
f 70/175/54 68/299/53 92/300/66 94/176/88
f 28/301/97 27/302/80 121/303/79 122/304/78
f 27/302/80 30/305/68 123/306/65 121/303/79
f 30/305/68 32/307/67 124/308/66 123/306/65
f 32/307/67 34/309/91 125/310/88 124/308/66
f 34/309/91 36/311/93 126/312/83 125/310/88
f 36/311/93 38/313/30 127/314/31 126/312/83
f 38/313/30 40/315/29 128/316/32 127/314/31
f 40/315/29 42/317/98 129/318/73 128/316/32
f 42/317/98 44/319/99 130/320/74 129/318/73
f 44/319/99 46/321/94 131/322/84 130/320/74
f 46/321/94 48/323/100 132/324/77 131/322/84
f 48/323/100 28/301/97 122/304/78 132/324/77
f 133/325/79 134/326/101 144/327/102 143/328/84 142/329/103 141/330/104 140/331/32 139/332/31 138/333/83 137/334/88 136/335/66 135/336/65
f 34/337/91 32/338/67 136/339/66 137/340/88
f 48/341/100 46/342/94 143/343/84 144/344/102
f 27/345/80 28/346/97 134/347/101 133/348/79
f 42/349/98 40/350/29 140/351/32 141/352/104
f 36/353/93 34/354/91 137/355/88 138/356/83
f 28/346/97 48/357/100 144/358/102 134/347/101
f 30/359/68 27/345/80 133/348/79 135/360/65
f 44/361/99 42/349/98 141/352/104 142/362/103
f 38/363/30 36/364/93 138/365/83 139/47/31
f 32/366/67 30/359/68 135/360/65 136/367/66
f 46/368/94 44/361/99 142/362/103 143/369/84
