# Blender v2.78 (sub 0) OBJ File: 'kanne.blend'
# www.blender.org
mtllib kanne.mtl
o Cylinder
v -0.000000 -1.119042 -0.696764
v 0.000000 1.119042 -1.125085
v 0.348382 -1.119042 -0.603416
v 0.562543 1.119042 -0.974352
v 0.603416 -1.119042 -0.348382
v 0.974352 1.119042 -0.562543
v 0.696764 -1.119042 0.000000
v 1.125085 1.119042 0.000000
v 0.603416 -1.119042 0.348382
v 0.974352 1.119042 0.562543
v 0.348382 -1.119042 0.603416
v 0.562543 1.119042 0.974352
v 0.000000 -1.119042 0.696765
v 0.000000 1.119042 1.125085
v -0.348382 -1.119042 0.603416
v -0.562542 1.119042 0.974352
v -0.603416 -1.119042 0.348383
v -0.974352 1.119042 0.562543
v -0.696764 -1.119042 0.000000
v -1.125085 1.119042 0.000001
v -0.603416 -1.119042 -0.348382
v -0.974353 1.119042 -0.562542
v -0.348383 -1.119042 -0.603415
v -0.562543 1.119042 -0.974352
vt 0.5207 0.3851
vt 0.5000 0.7557
vt 0.4058 0.7440
vt 0.4624 0.3779
vt 0.7595 0.3779
vt 0.7029 0.0117
vt 0.7971 0.0000
vt 0.8178 0.3706
vt 0.9058 0.0000
vt 0.8851 0.3706
vt 1.0000 0.0117
vt 0.9434 0.3779
vt 0.4624 0.3779
vt 0.4058 0.0117
vt 0.5000 0.0000
vt 0.5207 0.3706
vt 0.6087 0.0000
vt 0.5880 0.3706
vt 0.7029 0.0117
vt 0.6464 0.3779
vt 0.0566 0.7723
vt 0.0000 0.4062
vt 0.0942 0.3945
vt 0.1149 0.7651
vt 0.2029 0.3945
vt 0.1822 0.7651
vt 0.2971 0.4062
vt 0.2405 0.7723
vt 0.0000 0.2501
vt 0.0000 0.1444
vt 0.0544 0.0528
vt 0.1485 0.0000
vt 0.2573 0.0000
vt 0.3515 0.0528
vt 0.4058 0.1444
vt 0.4058 0.2501
vt 0.3515 0.3416
vt 0.2573 0.3945
vt 0.1485 0.3945
vt 0.0544 0.3416
vt 0.6464 0.3779
vt 0.7029 0.7440
vt 0.6087 0.7557
vt 0.5880 0.3851
vt 0.5652 1.0000
vt 0.4978 1.0000
vt 0.4395 0.9673
vt 0.4058 0.9106
vt 0.4058 0.8451
vt 0.4395 0.7884
vt 0.4978 0.7557
vt 0.5652 0.7557
vt 0.6235 0.7884
vt 0.6572 0.8451
vt 0.6572 0.9106
vt 0.6235 0.9673
vn 0.2545 -0.1818 -0.9498
vn 0.6953 -0.1818 -0.6953
vn 0.9498 -0.1818 -0.2545
vn 0.9498 -0.1818 0.2545
vn 0.6953 -0.1818 0.6953
vn 0.2545 -0.1818 0.9498
vn -0.2545 -0.1818 0.9498
vn -0.6953 -0.1818 0.6953
vn -0.9498 -0.1818 0.2545
vn -0.9498 -0.1818 -0.2545
vn 0.0000 1.0000 -0.0000
vn -0.6953 -0.1818 -0.6953
vn -0.2545 -0.1818 -0.9498
vn 0.0000 -1.0000 -0.0000
usemtl None
s off
f 1/1/1 2/2/1 4/3/1 3/4/1
f 3/5/2 4/6/2 6/7/2 5/8/2
f 5/8/3 6/7/3 8/9/3 7/10/3
f 7/10/4 8/9/4 10/11/4 9/12/4
f 9/13/5 10/14/5 12/15/5 11/16/5
f 11/16/6 12/15/6 14/17/6 13/18/6
f 13/18/7 14/17/7 16/19/7 15/20/7
f 15/21/8 16/22/8 18/23/8 17/24/8
f 17/24/9 18/23/9 20/25/9 19/26/9
f 19/26/10 20/25/10 22/27/10 21/28/10
f 4/29/11 2/30/11 24/31/11 22/32/11 20/33/11 18/34/11 16/35/11 14/36/11 12/37/11 10/38/11 8/39/11 6/40/11
f 21/41/12 22/42/12 24/43/12 23/44/12
f 23/44/13 24/43/13 2/2/13 1/1/13
f 1/45/14 3/46/14 5/47/14 7/48/14 9/49/14 11/50/14 13/51/14 15/52/14 17/53/14 19/54/14 21/55/14 23/56/14
o Cylinder.004
v 4.764739 -1.261364 -6.312529
v 4.265285 1.261551 -5.468872
v 5.907568 -1.261364 -5.943057
v 4.644493 1.261551 -5.346275
v 6.380944 -1.261364 -5.051071
v 4.801566 1.261551 -5.050302
v 5.907568 -1.261364 -4.159086
v 4.644493 1.261551 -4.754328
v 4.764739 -1.261364 -3.789613
v 4.265285 1.261551 -4.631731
v 3.621909 -1.261364 -4.159086
v 3.886078 1.261551 -4.754328
v 3.148534 -1.261364 -5.051071
v 3.729005 1.261551 -5.050302
v 3.621909 -1.261364 -5.943057
v 3.886078 1.261551 -5.346275
v 5.907568 1.261551 -5.943057
v 4.764739 1.261551 -6.312529
v 6.380944 1.261551 -5.051071
v 5.907568 1.261551 -4.159086
v 4.764739 1.261551 -3.789613
v 3.621909 1.261551 -4.159086
v 3.148534 1.261551 -5.051071
v 3.621909 1.261551 -5.943057
v 4.644493 1.190271 -5.346275
v 4.265285 1.190271 -5.468872
v 4.801566 1.190271 -5.050302
v 4.644493 1.190271 -4.754328
v 4.265285 1.190271 -4.631731
v 3.886078 1.190271 -4.754328
v 3.729005 1.190271 -5.050302
v 3.886078 1.190271 -5.346275
v 6.093003 0.098850 -5.254535
v 6.279261 2.085698 -5.192339
v 6.250635 0.082262 -5.196685
v 6.436893 2.069110 -5.134490
v 6.320925 0.070892 -5.043981
v 6.507183 2.057740 -4.981785
v 6.262698 0.071402 -4.885873
v 6.448956 2.058249 -4.823678
v 6.110062 0.083491 -4.814981
v 6.296319 2.070339 -4.752785
v 5.952429 0.100080 -4.872830
v 6.138687 2.086927 -4.810635
v 5.882139 0.111449 -5.025535
v 6.068397 2.098297 -4.963339
v 5.940367 0.110940 -5.183642
v 6.126624 2.097788 -5.121447
v 6.138687 2.086927 -4.810635
v 6.068397 2.098297 -4.963339
v 6.126624 2.097788 -5.121447
v 4.148928 2.362553 -5.138168
v 4.186848 2.265844 -5.283699
v 4.244864 2.064217 -5.285850
v 4.264961 1.959297 -5.142470
v 4.227042 2.056005 -4.996940
v 4.169025 2.257634 -4.994788
v 4.780223 2.397513 -5.098231
v 4.755013 2.297308 -5.247756
v 4.686770 2.088688 -5.257894
v 4.643738 1.980273 -5.118508
v 4.668948 2.080477 -4.968984
v 4.737191 2.289097 -4.958845
v 5.320090 2.152975 -5.071877
v 5.240893 2.077224 -5.224037
v 5.064677 1.917512 -5.239447
v 4.967658 1.833550 -5.102696
v 5.046855 1.909301 -4.950536
v 5.223071 2.069013 -4.935126
v 5.623873 1.694463 -5.066168
v 5.514297 1.664564 -5.218899
v 5.277325 1.596554 -5.235451
v 5.149928 1.558443 -5.099271
v 5.259503 1.588343 -4.946540
v 5.496475 1.656353 -4.929989
v 5.610172 1.144835 -5.082634
v 5.501967 1.169899 -5.233718
v 5.267735 1.211814 -5.246977
v 5.141708 1.228666 -5.109150
v 5.249913 1.203603 -4.958066
v 5.484145 1.161687 -4.944808
v 5.282660 0.651364 -5.116862
v 5.207207 0.725774 -5.264524
v 5.038477 0.866384 -5.270936
v 4.945201 0.932583 -5.129687
v 5.020655 0.858173 -4.982026
v 5.189384 0.717563 -4.975614
v 4.729093 0.346274 -5.159682
v 4.708996 0.451193 -5.303061
v 4.650980 0.652821 -5.300910
v 4.613060 0.749529 -5.155379
v 4.633157 0.644610 -5.012000
v 4.691174 0.442982 -5.014151
v 4.097798 0.311314 -5.199619
v 4.140831 0.419729 -5.339005
v 4.209074 0.628349 -5.328866
v 4.234283 0.728554 -5.179341
v 4.191251 0.620138 -5.039955
v 4.123009 0.411518 -5.050094
v 3.557931 0.555852 -5.225973
v 3.654950 0.639813 -5.362723
v 3.831166 0.799526 -5.347313
v 3.910363 0.875277 -5.195153
v 3.813344 0.791315 -5.058403
v 3.637128 0.631602 -5.073812
v 3.254148 1.014364 -5.231681
v 3.381546 1.052474 -5.367861
v 3.618518 1.120484 -5.351310
v 3.728093 1.150384 -5.198579
v 3.600696 1.112273 -5.062399
v 3.363724 1.044263 -5.078950
v 3.267849 1.563992 -5.215215
v 3.393876 1.547139 -5.353042
v 3.628109 1.505224 -5.339784
v 3.736313 1.480160 -5.188699
v 3.610286 1.497012 -5.050873
v 3.376054 1.538928 -5.064131
v 3.595361 2.057463 -5.180987
v 3.688637 1.991264 -5.322236
v 3.857367 1.850654 -5.315824
v 3.932821 1.776243 -5.168162
v 3.839545 1.842443 -5.026913
v 3.670815 1.983053 -5.033326
vt 0.5429 0.0000
vt 0.5429 0.3863
vt 0.4074 0.3872
vt 0.4074 0.0008
vt 0.3359 0.3900
vt 0.3359 0.0037
vt 0.2575 0.3873
vt 0.2575 0.7737
vt 0.1245 0.7748
vt 0.1245 0.3885
vt 0.0000 0.7731
vt 0.0000 0.3868
vt 0.3359 0.0002
vt 0.3359 0.3867
vt 0.2277 0.3864
vt 0.2277 0.0000
vt 0.0885 0.3865
vt 0.0885 0.0000
vt 0.3249 0.5017
vt 0.3244 0.5454
vt 0.3141 0.5454
vt 0.3146 0.5017
vt 0.0000 0.3868
vt 0.0000 0.0003
vt 0.6631 0.0017
vt 0.6631 0.3881
vt 0.7618 0.0000
vt 0.9013 0.0001
vt 1.0000 0.1047
vt 1.0000 0.2526
vt 0.9013 0.3571
vt 0.7618 0.3570
vt 0.6631 0.2524
vt 0.6631 0.1045
vt 0.4293 0.6048
vt 0.4757 0.6048
vt 0.5746 0.7471
vt 0.4347 0.7471
vt 0.5085 0.5701
vt 0.6734 0.6425
vt 0.5085 0.5211
vt 0.6734 0.4946
vt 0.4757 0.4864
vt 0.5746 0.3900
vt 0.4293 0.4864
vt 0.4347 0.3901
vt 0.3965 0.5211
vt 0.3359 0.4946
vt 0.3965 0.5701
vt 0.3359 0.6425
vt 0.4151 0.8655
vt 0.3687 0.8655
vt 0.3359 0.8308
vt 0.3359 0.7818
vt 0.3687 0.7471
vt 0.4151 0.7471
vt 0.4479 0.7818
vt 0.4479 0.8308
vt 0.3146 0.5016
vt 0.3138 0.4765
vt 0.3241 0.4766
vt 0.3249 0.5017
vt 0.3138 0.4289
vt 0.3146 0.3868
vt 0.3249 0.3868
vt 0.3241 0.4290
vt 0.3255 0.4736
vt 0.3255 0.4248
vt 0.3358 0.4248
vt 0.3358 0.4736
vt 0.3249 0.5921
vt 0.3146 0.5921
vt 0.3256 0.5047
vt 0.3359 0.5047
vt 0.3256 0.3868
vt 0.3359 0.3868
vt 0.9134 0.9855
vt 0.9134 0.6802
vt 0.9324 0.6811
vt 0.9324 0.9864
vt 0.2575 0.9983
vt 0.2575 0.6934
vt 0.2692 0.6949
vt 0.2692 0.9998
vt 0.2909 0.6951
vt 0.2909 1.0000
vt 0.3099 0.6939
vt 0.3099 0.9988
vt 0.2575 0.6934
vt 0.2575 0.3885
vt 0.2735 0.3870
vt 0.2735 0.6920
vt 0.2968 0.3868
vt 0.2968 0.6917
vt 0.0610 0.7782
vt 0.0804 0.7748
vt 0.0942 0.7903
vt 0.0942 0.8155
vt 0.0804 0.8357
vt 0.0610 0.8390
vt 0.0472 0.8235
vt 0.0472 0.7983
vt 0.3138 0.3879
vt 0.3138 0.6929
vt 0.8977 0.9846
vt 0.8977 0.6793
vt 0.0138 0.7748
vt 0.0334 0.7782
vt 0.0472 0.7983
vt 0.0472 0.8235
vt 0.0334 0.8390
vt 0.0138 0.8357
vt 0.0000 0.8155
vt 0.0000 0.7903
vt 0.0000 0.0000
vt 0.0000 0.0000
vt 0.0000 0.0000
vt 0.0000 0.0000
vt 0.0000 0.0000
vt 0.0000 0.0000
vt 0.5179 0.8130
vt 0.5179 0.8886
vt 0.4966 0.8840
vt 0.4966 0.8159
vt 0.7724 0.3964
vt 0.8366 0.3900
vt 0.8294 0.4222
vt 0.7795 0.4271
vt 0.5812 0.8480
vt 0.5812 0.7953
vt 0.6019 0.7977
vt 0.6019 0.8429
vt 0.6231 0.7938
vt 0.6231 0.8465
vt 0.7829 0.7160
vt 0.7536 0.7114
vt 0.7494 0.6793
vt 0.7871 0.6852
vt 0.5385 0.8174
vt 0.5385 0.8854
vt 0.5169 0.9538
vt 0.4957 0.9426
vt 0.8921 0.4225
vt 0.8727 0.4474
vt 0.5807 0.7485
vt 0.6015 0.7576
vt 0.6226 0.7471
vt 0.7281 0.7369
vt 0.7167 0.7122
vt 0.5376 0.9440
vt 0.9039 0.4101
vt 0.9396 0.4795
vt 0.9242 0.4850
vt 0.8976 0.4960
vt 0.8863 0.5016
vt 0.8649 0.4600
vt 0.4957 0.7626
vt 0.4792 0.8024
vt 0.4549 0.7935
vt 0.4741 0.7471
vt 0.7135 0.7857
vt 0.6978 0.7749
vt 0.6734 0.7694
vt 0.6944 0.6997
vt 0.9396 0.5638
vt 0.9242 0.5608
vt 0.8976 0.5550
vt 0.8863 0.5522
vt 0.4732 0.8525
vt 0.4479 0.8520
vt 0.7135 0.8447
vt 0.6978 0.8507
vt 0.6734 0.8536
vt 0.9039 0.6402
vt 0.8921 0.6296
vt 0.8727 0.6085
vt 0.8649 0.5981
vt 0.4792 0.8995
vt 0.4549 0.9069
vt 0.7281 0.8981
vt 0.7167 0.9193
vt 0.6944 0.9298
vt 0.5605 0.7471
vt 0.5595 0.8106
vt 0.5388 0.8156
vt 0.5397 0.7584
vt 0.8366 0.6730
vt 0.8294 0.6423
vt 0.6245 0.8917
vt 0.6235 0.8456
vt 0.6448 0.8425
vt 0.6457 0.8821
vt 0.4957 0.9309
vt 0.4741 0.9435
vt 0.7536 0.9315
vt 0.7494 0.9623
vt 0.7307 0.9776
vt 0.5592 0.8859
vt 0.5385 0.8833
vt 0.7724 0.6793
vt 0.7795 0.6472
vt 0.6231 0.7927
vt 0.6444 0.7971
vt 0.6650 0.7938
vt 0.6653 0.8467
vt 0.7829 0.9360
vt 0.7871 0.9681
vt 0.5807 0.8144
vt 0.5804 0.8821
vt 0.5595 0.9527
vt 0.5388 0.9435
vt 0.7168 0.6469
vt 0.7363 0.6220
vt 0.6235 0.7471
vt 0.6448 0.7581
vt 0.6653 0.7482
vt 0.8083 0.9105
vt 0.8198 0.9353
vt 0.5807 0.9422
vt 0.7091 0.6594
vt 0.6734 0.5900
vt 0.6847 0.5844
vt 0.7113 0.5733
vt 0.7266 0.5679
vt 0.7480 0.6096
vt 0.7860 0.8980
vt 0.7986 0.8562
vt 0.8230 0.8617
vt 0.8387 0.8726
vt 0.8977 0.6948
vt 0.8730 0.7545
vt 0.8487 0.7457
vt 0.8761 0.6793
vt 0.6734 0.5057
vt 0.6847 0.5086
vt 0.7113 0.5144
vt 0.7266 0.5174
vt 0.7986 0.8056
vt 0.8230 0.8027
vt 0.8387 0.7967
vt 0.8640 0.8297
vt 0.8387 0.8292
vt 0.7091 0.4293
vt 0.7168 0.4398
vt 0.7363 0.4608
vt 0.7480 0.4715
vt 0.7860 0.7599
vt 0.8083 0.7494
vt 0.8198 0.7282
vt 0.8730 0.9003
vt 0.8487 0.9076
vt 0.5169 0.7471
vt 0.4957 0.7566
vt 0.5807 0.8925
vt 0.6015 0.8810
vt 0.7642 0.7313
vt 0.8977 0.9473
vt 0.8761 0.9599
vn 0.3076 0.0000 -0.9515
vn 0.8833 0.0000 -0.4688
vn 0.8833 0.0000 0.4688
vn 0.3076 0.0000 0.9515
vn -0.3076 0.0000 0.9515
vn -0.8833 0.0000 0.4688
vn -0.8833 0.0000 -0.4688
vn -0.3076 0.0000 -0.9515
vn 0.0000 -1.0000 0.0000
vn 0.0000 1.0000 0.0000
vn 0.3443 -0.0029 -0.9389
vn 0.9040 -0.0716 -0.4215
vn 0.9337 -0.0983 0.3442
vn 0.4159 -0.0674 0.9069
vn -0.3443 0.0029 0.9389
vn -0.9040 0.0716 0.4214
vn 0.0933 0.9952 0.0312
vn -0.9337 0.0983 -0.3442
vn -0.4159 0.0674 -0.9069
vn -0.0933 -0.9952 -0.0312
vn 0.0000 0.0000 1.0000
vn -0.0109 0.8315 -0.5554
vn 0.0615 0.0284 -0.9977
vn 0.0819 -0.7988 -0.5960
vn 0.0109 -0.8315 0.5554
vn -0.0615 -0.0284 0.9977
vn -0.0819 0.7988 0.5960
vn 0.3644 0.7440 -0.5600
vn -0.2902 -0.7099 -0.6418
vn -0.3644 -0.7440 0.5600
vn 0.2902 0.7099 0.6417
vn 0.6837 0.4458 -0.5778
vn -0.6060 -0.4100 -0.6817
vn -0.6837 -0.4458 0.5778
vn 0.6060 0.4100 0.6817
vn 0.8128 -0.0028 -0.5826
vn -0.7351 0.0386 -0.6769
vn -0.8128 0.0028 0.5826
vn 0.7351 -0.0386 0.6769
vn 0.7009 -0.4254 -0.5725
vn -0.6267 0.4596 -0.6293
vn -0.7009 0.4254 0.5725
vn 0.6267 -0.4596 0.6293
vn 0.4295 -0.6990 -0.5717
vn -0.3585 0.7318 -0.5797
vn -0.4295 0.6990 0.5717
vn 0.3585 -0.7318 0.5797
vn -0.2902 -0.7099 -0.6417
usemtl None
s off
f 25/57/15 42/58/15 41/59/15 27/60/15
f 27/60/16 41/59/16 43/61/16 29/62/16
f 29/63/17 43/64/17 44/65/17 31/66/17
f 31/66/18 44/65/18 45/67/18 33/68/18
f 33/69/19 45/70/19 46/71/19 35/72/19
f 35/72/20 46/71/20 47/73/20 37/74/20
f 26/75/18 40/76/18 56/77/18 50/78/18
f 37/74/21 47/73/21 48/79/21 39/80/21
f 39/81/22 48/82/22 42/58/22 25/57/22
f 25/83/23 27/84/23 29/85/23 31/86/23 33/87/23 35/88/23 37/89/23 39/90/23
f 26/91/24 28/92/24 41/93/24 42/94/24
f 28/92/24 30/95/24 43/96/24 41/93/24
f 30/95/24 32/97/24 44/98/24 43/96/24
f 32/97/24 34/99/24 45/100/24 44/98/24
f 34/99/24 36/101/24 46/102/24 45/100/24
f 36/101/24 38/103/24 47/104/24 46/102/24
f 38/103/24 40/105/24 48/106/24 47/104/24
f 40/105/24 26/91/24 42/94/24 48/106/24
f 49/107/24 50/108/24 56/109/24 55/110/24 54/111/24 53/112/24 52/113/24 51/114/24
f 38/115/16 36/116/16 54/117/16 55/118/16
f 34/119/22 32/120/22 52/121/22 53/122/22
f 30/123/20 28/124/20 49/125/20 51/126/20
f 40/76/17 38/127/17 55/128/17 56/77/17
f 36/116/15 34/119/15 53/122/15 54/117/15
f 32/129/21 30/123/21 51/126/21 52/130/21
f 28/124/19 26/131/19 50/132/19 49/125/19
f 57/133/25 58/134/25 60/135/25 59/136/25
f 59/137/26 60/138/26 62/139/26 61/140/26
f 61/140/27 62/139/27 64/141/27 63/142/27
f 63/142/28 64/141/28 66/143/28 65/144/28
f 65/145/29 66/146/29 68/147/29 67/148/29
f 67/148/30 68/147/30 70/149/30 69/150/30
f 60/151/31 58/152/31 72/153/31 70/154/31 68/155/31 66/156/31 64/157/31 62/158/31
f 69/150/32 70/149/32 72/159/32 71/160/32
f 71/161/33 72/162/33 58/134/33 57/133/33
f 57/163/34 59/164/34 61/165/34 63/166/34 65/167/34 67/168/34 69/169/34 71/170/34
f 72/171/35 70/172/35 74/173/35 75/174/35
f 68/175/35 70/172/35 74/173/35 73/176/35
f 76/177/36 82/178/36 83/179/36 77/180/36
f 77/181/37 83/182/37 84/183/37 78/184/37
f 78/185/38 84/186/38 85/187/38 79/188/38
f 79/188/39 85/187/39 86/189/39 80/190/39
f 80/191/40 86/192/40 87/193/40 81/194/40
f 76/177/41 81/195/41 87/196/41 82/178/41
f 82/178/42 88/197/42 89/198/42 83/179/42
f 83/182/37 89/199/37 90/200/37 84/183/37
f 84/186/43 90/201/43 91/202/43 85/187/43
f 85/187/44 91/202/44 92/203/44 86/189/44
f 86/192/40 92/204/40 93/205/40 87/193/40
f 87/196/45 93/206/45 88/197/45 82/178/45
f 88/207/46 94/208/46 95/209/46 89/199/46
f 89/199/37 95/209/37 96/210/37 90/200/37
f 90/200/47 96/210/47 97/211/47 91/212/47
f 91/213/48 97/214/48 98/215/48 92/216/48
f 92/204/40 98/217/40 99/218/40 93/205/40
f 93/205/49 99/218/49 94/219/49 88/220/49
f 94/208/50 100/221/50 101/222/50 95/209/50
f 95/209/37 101/222/37 102/223/37 96/210/37
f 96/210/51 102/223/51 103/224/51 97/211/51
f 97/214/52 103/225/52 104/226/52 98/215/52
f 98/217/40 104/227/40 105/228/40 99/218/40
f 99/218/53 105/228/53 100/229/53 94/219/53
f 100/221/54 106/230/54 107/231/54 101/222/54
f 101/222/37 107/231/37 108/232/37 102/223/37
f 102/223/55 108/232/55 109/233/55 103/224/55
f 103/225/56 109/234/56 110/235/56 104/226/56
f 104/227/40 110/236/40 111/237/40 105/228/40
f 105/228/57 111/237/57 106/238/57 100/229/57
f 106/239/58 112/240/58 113/241/58 107/242/58
f 107/231/37 113/243/37 114/244/37 108/232/37
f 108/245/59 114/246/59 115/247/59 109/248/59
f 109/234/60 115/249/60 116/250/60 110/235/60
f 110/236/40 116/251/40 117/252/40 111/237/40
f 111/237/61 117/252/61 112/253/61 106/238/61
f 112/240/38 118/254/38 119/255/38 113/241/38
f 113/243/37 119/256/37 120/257/37 114/244/37
f 114/246/36 120/258/36 121/259/36 115/247/36
f 115/247/41 121/259/41 122/260/41 116/261/41
f 116/251/40 122/262/40 123/263/40 117/252/40
f 117/264/39 123/265/39 118/254/39 112/240/39
f 118/254/62 124/266/62 125/267/62 119/255/62
f 119/256/37 125/268/37 126/269/37 120/257/37
f 120/258/42 126/270/42 127/271/42 121/259/42
f 121/259/45 127/271/45 128/272/45 122/260/45
f 122/262/40 128/273/40 129/274/40 123/263/40
f 123/265/44 129/275/44 124/266/44 118/254/44
f 124/276/47 130/277/47 131/278/47 125/268/47
f 125/268/37 131/278/37 132/279/37 126/269/37
f 126/269/46 132/279/46 133/280/46 127/281/46
f 127/282/49 133/283/49 134/284/49 128/273/49
f 128/273/40 134/284/40 135/285/40 129/274/40
f 129/286/48 135/287/48 130/288/48 124/289/48
f 130/277/51 136/290/51 137/291/51 131/278/51
f 131/278/37 137/291/37 138/292/37 132/279/37
f 132/279/50 138/292/50 139/293/50 133/280/50
f 133/283/53 139/294/53 140/295/53 134/284/53
f 134/284/40 140/295/40 141/296/40 135/285/40
f 135/287/52 141/297/52 136/298/52 130/288/52
f 136/290/55 142/299/55 143/300/55 137/291/55
f 137/291/37 143/300/37 144/301/37 138/292/37
f 138/292/54 144/301/54 145/302/54 139/293/54
f 139/294/57 145/303/57 146/304/57 140/295/57
f 140/295/40 146/304/40 147/305/40 141/296/40
f 141/297/56 147/306/56 142/307/56 136/298/56
f 142/308/59 76/177/59 77/180/59 143/309/59
f 143/300/37 77/181/37 78/184/37 144/301/37
f 144/310/58 78/185/58 79/188/58 145/311/58
f 145/303/61 79/312/61 80/191/61 146/304/61
f 146/304/40 80/191/40 81/194/40 147/305/40
f 147/306/60 81/313/60 76/314/60 142/307/60
